<?xml version="1.0" standalone="no"?>
<!DOCTYPE svg PUBLIC "-//W3C//DTD SVG 20010904//EN"
 "http://www.w3.org/TR/2001/REC-SVG-20010904/DTD/svg10.dtd">
<svg version="1.0" xmlns="http://www.w3.org/2000/svg"
 width="750.000000pt" height="512.000000pt" viewBox="0 0 750.000000 512.000000"
 preserveAspectRatio="xMidYMid meet">

<g transform="translate(0.000000,512.000000) scale(0.100000,-0.100000)"
fill="#000000" stroke="none">
<path d="M2420 4859 c-64 -13 -139 -52 -182 -96 -20 -21 -90 -130 -156 -243
-147 -253 -913 -1579 -1011 -1750 -40 -69 -79 -149 -88 -179 -20 -70 -12 -165
20 -234 13 -29 116 -212 229 -407 113 -195 377 -652 587 -1015 418 -724 423
-732 538 -775 42 -16 89 -24 168 -27 101 -5 929 7 895 13 -8 2 -31 5 -50 8
l-35 6 2 549 c3 514 2 550 -15 554 -9 3 19 6 63 8 44 1 -14 5 -130 9 -191 5
-215 7 -261 28 -29 13 -63 35 -77 50 -26 27 -560 945 -603 1037 -32 67 -32
143 0 210 44 93 577 1010 603 1037 14 15 48 37 77 49 46 21 72 24 251 29 110
4 174 7 143 8 -64 2 -92 22 -31 22 25 0 33 3 24 9 -7 5 -21 7 -30 4 -15 -4
-16 38 -13 514 3 347 7 520 14 524 16 10 0 29 -25 29 -43 0 4 17 50 18 25 1
47 3 49 5 6 6 -544 17 -765 16 -108 -1 -216 -5 -241 -10z"/>
<path d="M3202 3124 c-24 -41 -40 -79 -37 -84 3 -5 0 -12 -6 -16 -8 -4 -9 -3
-5 4 4 7 5 12 3 12 -11 0 -97 -162 -91 -172 4 -6 3 -8 -3 -5 -5 3 -23 -19 -41
-49 l-31 -54 287 2 c211 2 253 4 157 8 -71 3 -122 8 -113 12 15 6 17 25 17
149 1 121 -1 140 -14 135 -17 -6 -17 -7 -19 52 -1 36 1 42 19 42 16 0 17 -2 5
-10 -12 -8 -9 -10 13 -10 17 0 27 5 27 15 0 11 -11 15 -42 15 -27 0 -39 3 -32
10 5 5 79 11 164 13 l155 3 -186 2 -185 2 -42 -76z"/>
<path d="M3327 3123 c-10 -9 -8 -43 2 -43 5 0 11 11 13 25 5 24 -2 32 -15 18z"/>
<path d="M3360 2802 c0 -15 4 -20 16 -15 9 3 12 9 7 12 -4 3 -11 10 -15 15 -5
5 -8 0 -8 -12z"/>
<path d="M3008 2208 c11 -18 47 -79 80 -135 32 -57 61 -101 64 -98 2 3 5 -1 5
-8 0 -6 19 -47 43 -89 l44 -78 210 2 c210 2 210 3 46 5 l-165 3 3 143 c2 78
-1 160 -6 183 -7 30 -6 43 5 53 8 7 12 19 9 27 -4 11 18 14 112 17 64 1 -15 4
-176 5 l-294 2 20 -32z m312 -324 c0 -8 -5 -12 -10 -9 -6 4 -8 11 -5 16 9 14
15 11 15 -7z m-74 -23 c-10 -16 -23 -13 -30 5 -6 15 -4 15 11 3 15 -13 16 -12
9 6 -5 15 -4 17 5 8 6 -6 8 -16 5 -22z m74 -21 c0 -11 -4 -20 -8 -20 -4 0 -8
9 -9 20 -1 11 2 20 8 20 5 0 9 -9 9 -20z"/>
<path d="M3361 2174 c0 -11 3 -14 6 -6 3 7 2 16 -1 19 -3 4 -6 -2 -5 -13z"/>
<path d="M3358 1878 c-3 -7 -2 -24 2 -38 5 -23 6 -24 14 -5 4 12 3 21 -4 23
-8 3 -7 8 1 18 7 8 7 14 1 14 -5 0 -12 -6 -14 -12z"/>
</g>
</svg>
